<svg xmlns="http://www.w3.org/2000/svg" viewBox="0 0 200 40" width="200" height="40">
  <defs>
    <linearGradient id="flame" x1="0%" y1="100%" x2="0%" y2="0%">
      <stop offset="0%" style="stop-color:#f97316"/>
      <stop offset="100%" style="stop-color:#ef4444"/>
    </linearGradient>
  </defs>
  <path d="M16 36c-6.6 0-12-5.4-12-12 0-4.4 2.4-8.8 6-14 1.2-1.8 2.6-3.6 4-5.4.4-.6 1.2-.6 1.6 0 1 1.2 2 2.6 2.8 4 .2-.8.6-1.6 1-2.4.3-.5 1-.5 1.3 0C24.4 12.8 28 19.2 28 24c0 6.6-5.4 12-12 12zm0-4c4.4 0 8-3.6 8-8 0-3.2-2-7.2-5.2-12.4-.4.8-.8 1.8-1 2.8-.2.6-1 .8-1.4.4C15 13.6 13.8 11.8 12.8 10.4 10.4 14 8 17.6 8 24c0 4.4 3.6 8 8 8z" fill="url(#flame)"/>
  <text x="36" y="29" font-family="'Segoe UI', system-ui, sans-serif" font-size="22" font-weight="700" fill="#1a1a1a">
    Resume<tspan fill="#f97316">Flame</tspan>
  </text>
</svg>
